<svg width="32" height="32" viewBox="0 0 32 32" fill="none" xmlns="http://www.w3.org/2000/svg">
<path d="M24 0C28.4183 0 32 3.58172 32 8V24C32 28.4183 28.4183 32 24 32H8C3.58172 32 0 28.4183 0 24V8C0 3.58172 3.58172 0 8 0H24Z" fill="url(#paint0_linear_87_2490)"/>
<path d="M24 0C28.4183 0 32 3.58172 32 8V24C32 28.4183 28.4183 32 24 32H8C3.58172 32 0 28.4183 0 24V8C0 3.58172 3.58172 0 8 0H24Z" stroke="#E5E7EB"/>
<path d="M23 26H9V6H23V26Z" stroke="#E5E7EB"/>
<g clip-path="url(#clip0_87_2490)">
<path d="M13.8125 9.40625C13.8125 9.04258 13.5199 8.75 13.1562 8.75C12.7926 8.75 12.5 9.04258 12.5 9.40625V10.5C11.5348 10.5 10.75 11.2848 10.75 12.25H9.65625C9.29258 12.25 9 12.5426 9 12.9062C9 13.2699 9.29258 13.5625 9.65625 13.5625H10.75V15.0938H9.65625C9.29258 15.0938 9 15.3863 9 15.75C9 16.1137 9.29258 16.4062 9.65625 16.4062H10.75V17.9375H9.65625C9.29258 17.9375 9 18.2301 9 18.5938C9 18.9574 9.29258 19.25 9.65625 19.25H10.75C10.75 20.2152 11.5348 21 12.5 21V22.0938C12.5 22.4574 12.7926 22.75 13.1562 22.75C13.5199 22.75 13.8125 22.4574 13.8125 22.0938V21H15.3438V22.0938C15.3438 22.4574 15.6363 22.75 16 22.75C16.3637 22.75 16.6562 22.4574 16.6562 22.0938V21H18.1875V22.0938C18.1875 22.4574 18.4801 22.75 18.8438 22.75C19.2074 22.75 19.5 22.4574 19.5 22.0938V21C20.4652 21 21.25 20.2152 21.25 19.25H22.3438C22.7074 19.25 23 18.9574 23 18.5938C23 18.2301 22.7074 17.9375 22.3438 17.9375H21.25V16.4062H22.3438C22.7074 16.4062 23 16.1137 23 15.75C23 15.3863 22.7074 15.0938 22.3438 15.0938H21.25V13.5625H22.3438C22.7074 13.5625 23 13.2699 23 12.9062C23 12.5426 22.7074 12.25 22.3438 12.25H21.25C21.25 11.2848 20.4652 10.5 19.5 10.5V9.40625C19.5 9.04258 19.2074 8.75 18.8438 8.75C18.4801 8.75 18.1875 9.04258 18.1875 9.40625V10.5H16.6562V9.40625C16.6562 9.04258 16.3637 8.75 16 8.75C15.6363 8.75 15.3438 9.04258 15.3438 9.40625V10.5H13.8125V9.40625ZM13.375 12.25H18.625C19.109 12.25 19.5 12.641 19.5 13.125V18.375C19.5 18.859 19.109 19.25 18.625 19.25H13.375C12.891 19.25 12.5 18.859 12.5 18.375V13.125C12.5 12.641 12.891 12.25 13.375 12.25ZM18.625 13.125H13.375V18.375H18.625V13.125Z" fill="white"/>
</g>
<defs>
<linearGradient id="paint0_linear_87_2490" x1="-11.3137" y1="11.3137" x2="11.3137" y2="33.9411" gradientUnits="userSpaceOnUse">
<stop stop-color="#60A5FA"/>
<stop offset="1" stop-color="#2563EB"/>
</linearGradient>
<clipPath id="clip0_87_2490">
<path d="M9 8.75H23V22.75H9V8.75Z" fill="white"/>
</clipPath>
</defs>
</svg>
